<svg width="24" height="24" viewBox="0 0 24 24" fill="none" xmlns="http://www.w3.org/2000/svg">
<g clip-path="url(#clip0_27_294)">
<path d="M11.9994 4.99935C11.3403 4.99033 10.6863 5.11844 10.0757 5.37611C9.46517 5.63378 8.91052 6.01579 8.44448 6.49961C7.97845 6.98343 7.61048 7.55925 7.36228 8.19309C7.11408 8.82694 6.99068 9.50598 6.99936 10.1901C6.99936 14.0832 11.5202 18.5387 11.7077 18.7333L11.9994 18.9993L12.291 18.7333C12.4785 18.5387 16.9994 14.0832 16.9994 10.1901C17.008 9.50598 16.8846 8.82694 16.6364 8.19309C16.3882 7.55925 16.0203 6.98343 15.5542 6.49961C15.0882 6.01579 14.5336 5.63378 13.923 5.37611C13.3125 5.11844 12.6584 4.99033 11.9994 4.99935ZM11.9994 11.9204C11.6697 11.9204 11.3475 11.8189 11.0734 11.6288C10.7993 11.4387 10.5857 11.1684 10.4596 10.8523C10.3334 10.5361 10.3004 10.1882 10.3647 9.85258C10.429 9.51694 10.5878 9.20864 10.8208 8.96666C11.0539 8.72467 11.3509 8.55988 11.6742 8.49312C11.9975 8.42636 12.3326 8.46062 12.6372 8.59158C12.9417 8.72254 13.202 8.94431 13.3851 9.22886C13.5683 9.5134 13.666 9.84792 13.666 10.1901C13.666 10.649 13.4904 11.0891 13.1779 11.4136C12.8653 11.7381 12.4414 11.9204 11.9994 11.9204Z" fill="#9C9C9C"/>
</g>
<defs>
<clipPath id="clip0_27_294">
<rect width="10" height="14" fill="white" transform="translate(7 5)"/>
</clipPath>
</defs>
</svg>
